<?xml version="1.0" standalone="no"?>
<!DOCTYPE svg PUBLIC "-//W3C//DTD SVG 20010904//EN"
 "http://www.w3.org/TR/2001/REC-SVG-20010904/DTD/svg10.dtd">
<svg version="1.0" xmlns="http://www.w3.org/2000/svg"
 width="340.000000pt" height="340.000000pt" viewBox="0 0 340.000000 340.000000"
 preserveAspectRatio="xMidYMid meet">
<metadata>
Created by potrace 1.11, written by Peter Selinger 2001-2013
</metadata>
<g transform="translate(0.000000,340.000000) scale(0.100000,-0.100000)"
fill="#000000" stroke="none">
<path d="M605 3368 c-204 -18 -388 -121 -441 -246 -8 -20 -17 -73 -19 -117 -2
-44 -7 -127 -11 -185 -6 -107 -6 -162 0 -196 14 -68 64 -138 131 -182 l45 -29
-41 -6 c-50 -7 -84 -29 -109 -70 -18 -29 -20 -52 -20 -244 0 -238 5 -260 67
-303 33 -23 45 -24 159 -25 68 0 124 0 124 0 0 0 -6 -20 -14 -45 l-13 -45 -51
-3 -51 -3 -1 -750 c0 -709 1 -749 17 -750 10 -1 29 -2 43 -3 14 0 30 -5 37 -9
13 -8 14 -47 1 -47 -4 0 -8 -4 -8 -8 0 -4 12 -8 28 -9 22 -1 23 0 8 6 -13 5
-16 10 -9 14 6 4 19 0 27 -9 9 -8 16 -11 16 -5 0 5 -4 13 -10 16 -5 3 -10 12
-10 18 0 8 3 8 9 -1 4 -8 10 -13 12 -13 15 2 48 -13 43 -20 -3 -5 3 -6 12 -2
13 5 15 3 9 -8 -4 -8 -5 -11 0 -7 4 4 15 2 24 -4 9 -7 5 0 -8 14 -13 15 -21
33 -18 40 4 8 6 7 6 -5 1 -10 5 -16 10 -13 5 3 11 -1 15 -9 3 -10 16 -13 36
-11 23 3 30 0 26 -10 -3 -7 0 -16 7 -20 7 -4 9 -4 5 1 -4 4 -3 17 3 28 8 14 8
18 0 13 -7 -4 -9 -1 -5 8 5 12 9 13 19 3 7 -6 11 -17 8 -23 -2 -6 3 -14 13
-18 14 -5 15 -4 4 9 -7 8 -9 15 -5 15 4 0 2 6 -4 13 -8 10 -7 14 4 14 8 0 12
-4 9 -9 -3 -4 0 -8 5 -8 6 0 11 8 12 18 0 12 3 10 10 -7 5 -13 7 -26 4 -29 -3
-3 -5 0 -5 7 0 7 -5 9 -11 5 -8 -4 -7 -9 2 -15 7 -4 19 -3 25 2 8 7 14 7 18 0
4 -6 14 -7 24 -4 15 6 16 5 2 -12 -14 -18 -14 -18 12 0 15 11 28 24 28 29 0 5
-6 4 -13 -2 -8 -7 -18 -7 -27 -2 -8 5 -17 7 -21 4 -4 -2 -13 4 -20 14 -13 15
-12 16 4 3 17 -13 18 -12 13 14 -3 15 -2 24 2 20 4 -3 8 -11 8 -16 1 -5 2 -13
3 -19 2 -14 41 -12 41 2 0 6 6 3 14 -7 8 -11 12 -23 10 -26 -2 -4 2 -9 9 -12
7 -3 13 3 13 13 0 10 -5 16 -10 13 -5 -3 -6 -1 -2 5 4 6 14 8 23 5 13 -5 15
-2 10 13 -7 18 -6 18 7 1 9 -11 16 -14 19 -7 3 6 4 5 3 -2 -2 -7 -9 -13 -16
-13 -17 0 -24 -21 -11 -30 7 -4 8 0 4 11 -4 12 -3 15 6 10 6 -4 18 -2 26 4 18
15 20 -1 3 -20 -7 -8 -3 -6 9 4 13 11 19 24 16 34 -4 13 -2 12 10 -3 13 -17
13 -21 0 -30 -12 -9 -11 -11 6 -11 11 0 18 2 16 5 -3 2 3 10 13 18 16 12 16
13 0 7 -10 -3 -18 -2 -18 3 0 19 14 23 29 9 9 -8 23 -16 31 -18 8 -2 18 -10
22 -18 5 -8 6 1 3 20 -5 32 -5 33 7 14 11 -18 15 -19 25 -9 6 7 10 16 7 19 -2
3 -1 4 3 1 3 -3 12 0 19 6 9 7 12 6 10 -8 -2 -10 -8 -18 -14 -18 -7 0 -12 -3
-12 -7 0 -29 2 -31 11 -15 14 23 29 22 24 -3 -4 -19 -3 -19 21 -4 13 9 24 21
24 28 0 6 -4 5 -9 -3 -5 -7 -14 -10 -20 -7 -6 4 -9 12 -5 17 3 5 10 7 15 4 5
-4 9 -1 9 6 0 7 6 4 14 -6 8 -11 12 -24 9 -29 -4 -5 -1 -6 5 -2 7 4 12 2 12
-5 0 -7 3 -9 6 -6 4 4 -1 19 -11 34 -13 20 -14 24 -4 16 12 -10 18 -10 29 0
10 10 11 9 5 -2 -5 -9 -3 -12 6 -9 8 3 14 10 14 15 0 6 4 15 9 20 6 5 6 2 1
-6 -6 -11 -4 -13 11 -7 10 4 15 4 11 0 -4 -4 -1 -14 5 -22 10 -11 8 -17 -7
-28 -10 -8 -14 -14 -9 -14 6 0 15 5 21 11 16 16 65 19 59 3 -3 -7 0 -16 7 -20
7 -4 9 -4 5 1 -4 4 -3 17 3 28 8 14 8 18 0 13 -7 -5 -8 -1 -4 10 4 11 8 13 11
6 2 -7 8 -12 13 -12 6 0 8 4 5 8 -3 5 1 9 9 9 8 0 12 -4 9 -9 -3 -4 -1 -8 5
-8 5 0 11 8 13 18 3 14 5 13 10 -6 3 -12 2 -20 -2 -17 -14 9 -23 -16 -11 -28
9 -9 11 -8 6 3 -4 11 1 16 14 17 15 1 18 -3 14 -15 -7 -18 -5 -17 17 12 8 11
10 17 4 13 -7 -4 -18 1 -25 10 -12 15 -12 16 1 8 24 -15 52 -17 44 -3 -4 6 -3
8 4 4 5 -3 12 0 15 6 3 7 4 3 4 -9 -1 -12 -4 -21 -7 -21 -18 2 -27 -4 -27 -15
0 -8 6 -14 13 -14 7 0 10 6 7 13 -5 13 14 14 35 0 12 -7 12 -4 2 14 -6 12 -9
24 -6 28 3 3 6 -1 6 -9 0 -12 2 -11 11 1 9 13 10 12 5 -2 -3 -10 -1 -18 5 -18
6 0 7 -6 3 -12 -4 -7 -4 -10 1 -6 4 4 15 2 24 -5 14 -10 14 -10 4 4 -7 9 -9
20 -5 24 4 5 0 4 -8 0 -13 -8 -13 -7 -1 8 15 18 26 23 16 7 -3 -5 -1 -10 4
-10 6 0 11 6 11 13 0 7 3 8 8 2 10 -14 65 -17 56 -3 -4 6 -3 8 4 4 5 -3 12 -3
15 1 2 5 2 2 1 -4 -2 -7 4 -13 12 -13 8 0 12 -5 9 -10 -5 -8 -11 -7 -21 1 -18
15 -18 2 0 -17 17 -17 27 -18 23 -3 -1 6 4 14 12 17 9 3 11 0 6 -9 -5 -8 -5
-11 0 -7 4 4 15 2 24 -5 14 -10 14 -10 4 4 -7 9 -9 20 -5 24 4 5 2 5 -4 2 -7
-4 -17 0 -24 9 -10 12 -11 17 -1 27 10 9 11 8 5 -8 -4 -11 -4 -17 1 -13 4 4
14 3 21 -3 16 -13 37 -2 28 13 -4 7 -2 8 5 4 6 -4 9 -12 6 -17 -4 -5 -2 -9 4
-9 5 0 12 6 14 13 4 9 6 8 6 -2 1 -11 4 -11 19 0 15 11 15 11 4 -1 -7 -8 -17
-15 -22 -15 -6 0 -10 -3 -10 -7 0 -29 2 -31 11 -16 14 25 29 23 24 -3 -3 -17
-2 -19 10 -9 8 6 20 9 27 5 7 -4 3 2 -9 12 -14 11 -19 23 -15 31 6 9 14 5 31
-14 18 -21 25 -23 37 -13 12 9 12 15 2 28 -12 14 -11 14 4 3 9 -8 22 -11 28
-7 5 3 13 -1 16 -9 3 -9 10 -13 16 -10 5 3 4 11 -3 20 -7 8 -7 14 -1 14 19 0
24 -34 6 -47 -15 -11 -14 -12 4 -10 11 0 18 5 15 11 -4 5 0 7 9 4 8 -4 15 0
15 8 0 7 -4 11 -9 8 -4 -3 -8 0 -8 6 0 7 8 9 20 5 11 -4 20 -2 20 4 0 6 5 11
11 11 5 0 8 -4 4 -9 -8 -14 30 -32 51 -24 13 5 15 3 9 -8 -4 -8 -5 -11 0 -7 4
4 15 2 24 -4 9 -7 5 0 -8 14 -13 15 -21 33 -18 40 3 8 6 6 6 -6 1 -11 4 -16 8
-13 3 4 12 -1 19 -11 11 -14 15 -15 26 -3 11 12 10 13 -7 7 -11 -4 -16 -4 -12
0 4 4 1 14 -6 22 -8 11 -4 10 16 -3 20 -13 26 -23 22 -39 -5 -16 -4 -18 4 -6
5 8 13 11 17 7 4 -4 13 -2 21 4 11 9 11 15 1 28 -8 10 -5 9 10 -3 19 -17 20
-20 6 -30 -13 -10 -13 -12 5 -12 11 0 18 3 16 7 -5 7 44 32 65 33 10 0 14 -8
13 -24 -1 -14 1 -19 3 -12 3 6 10 12 15 12 6 0 7 -6 3 -12 -4 -7 6 -1 23 15
16 15 33 24 37 20 4 -4 11 -1 16 7 5 8 12 11 16 8 3 -4 -10 -17 -30 -29 -20
-11 -36 -22 -36 -23 0 -1 9 -2 19 -2 11 0 17 5 14 10 -4 5 1 7 11 3 10 -4 15
-3 11 3 -11 18 14 10 25 -7 11 -17 11 -17 6 -1 -3 12 0 18 10 18 9 0 12 5 8
13 -4 6 3 2 15 -11 18 -18 26 -21 37 -11 12 9 12 15 2 28 -12 14 -11 14 4 3 9
-8 22 -11 28 -7 5 3 13 -1 16 -9 3 -9 10 -13 16 -10 5 3 4 11 -3 20 -7 8 -7
14 -1 14 19 0 24 -34 6 -47 -15 -11 -14 -12 4 -10 11 0 18 5 15 11 -4 5 0 7 9
4 8 -4 15 0 15 8 0 7 -4 11 -9 8 -4 -3 -8 0 -8 6 0 7 8 9 20 5 11 -4 20 -2 20
4 0 6 4 11 10 11 5 0 9 -5 7 -11 -1 -6 4 -14 12 -17 9 -3 11 0 6 8 -5 9 -4 11
4 6 6 -4 9 -11 6 -16 -3 -4 3 -14 12 -21 10 -8 14 -9 10 -2 -9 15 35 14 45 -2
5 -6 8 -6 8 2 0 15 -30 32 -46 26 -6 -2 -14 3 -18 12 -3 9 -2 13 4 10 6 -3 10
0 10 7 0 11 2 11 9 0 20 -33 94 -51 97 -24 3 25 6 26 14 7 7 -17 9 -17 9 -2 1
9 6 17 11 17 6 0 10 8 8 18 -2 10 3 17 12 17 8 0 14 -6 12 -13 -1 -8 2 -11 8
-7 6 3 8 11 5 16 -4 5 3 9 14 9 20 0 20 3 20 750 l-1 750 -48 0 c-43 0 -49 3
-58 28 -27 67 -28 66 93 67 121 1 148 7 183 39 50 45 53 64 53 283 0 176 -2
209 -18 241 -23 47 -75 82 -121 82 l-36 0 45 29 c83 52 136 140 140 231 2 32
-3 131 -17 339 -7 105 -30 156 -96 216 -104 94 -233 136 -428 141 -145 4 -230
-11 -336 -57 -183 -81 -298 -211 -373 -423 -53 -149 -98 -225 -180 -301 -31
-29 -35 -30 -139 -31 l-106 -1 -59 55 c-63 61 -120 164 -173 316 -104 300
-404 476 -759 444z m169 -529 c179 -46 324 -115 553 -266 67 -45 140 -91 163
-104 53 -30 38 -36 -84 -33 -201 4 -360 40 -505 112 -69 35 -191 129 -236 183
-11 13 -42 51 -70 83 l-50 59 75 -7 c41 -4 110 -16 154 -27z m2018 -41 c-179
-219 -323 -299 -622 -349 -76 -13 -274 -19 -289 -9 -6 3 8 17 31 30 24 13 108
67 188 119 266 173 526 276 713 280 l38 1 -59 -72z m-401 -1037 c6 -1 39 -74
39 -86 0 -3 -329 -5 -731 -5 l-730 0 7 23 c3 12 12 33 19 47 l13 25 688 -1
c379 -1 692 -2 695 -3z m554 -1601 c-3 -5 -1 -10 6 -10 7 0 9 -3 5 -7 -4 -5
-11 -7 -14 -6 -10 2 -32 -18 -28 -26 3 -4 -4 -7 -14 -7 -10 0 -17 3 -14 7 2 4
-2 10 -8 12 -12 5 16 11 34 8 4 0 12 8 18 19 6 11 13 20 16 20 3 0 2 -4 -1
-10z m-1862 -15 c-3 -9 -8 -14 -10 -11 -3 3 -2 9 2 15 9 16 15 13 8 -4z m848
-2 c13 -16 12 -17 -3 -4 -10 7 -18 15 -18 17 0 8 8 3 21 -13z m638 4 c8 -10 7
-14 -2 -14 -8 0 -14 6 -14 14 0 7 1 13 2 13 2 0 8 -6 14 -13z m-2088 -20 c-10
-9 -11 -8 -5 6 3 10 9 15 12 12 3 -3 0 -11 -7 -18z m487 -2 c-3 -3 -9 2 -12
12 -6 14 -5 15 5 6 7 -7 10 -15 7 -18z m62 21 c0 -2 -7 -7 -16 -10 -8 -3 -12
-2 -9 4 6 10 25 14 25 6z m175 -6 c-3 -5 -12 -10 -18 -10 -7 0 -6 4 3 10 19
12 23 12 15 0z m500 0 c3 -5 1 -10 -4 -10 -6 0 -11 5 -11 10 0 6 2 10 4 10 3
0 8 -4 11 -10z m305 0 c0 -5 -4 -10 -10 -10 -5 0 -10 5 -10 10 0 6 5 10 10 10
6 0 10 -4 10 -10z m320 0 c0 -5 -4 -10 -10 -10 -5 0 -10 5 -10 10 0 6 5 10 10
10 6 0 10 -4 10 -10z m164 2 c3 -5 -1 -9 -9 -9 -8 0 -15 4 -15 9 0 10 17 10
24 0z m156 -2 c0 -5 -4 -10 -10 -10 -5 0 -10 5 -10 10 0 6 5 10 10 10 6 0 10
-4 10 -10z m213 -5 c-3 -9 -8 -14 -10 -11 -3 3 -2 9 2 15 9 16 15 13 8 -4z
m-2220 -8 c4 3 7 0 7 -8 0 -12 2 -11 11 1 8 12 10 12 7 1 -2 -8 -14 -15 -26
-16 -12 -1 -20 1 -17 3 3 3 -1 12 -8 21 -10 14 -10 14 4 4 9 -7 19 -10 22 -6z
m257 9 c0 -2 -7 -7 -16 -10 -8 -3 -12 -2 -9 4 6 10 25 14 25 6z m171 -23 c13
-16 12 -17 -3 -4 -10 7 -18 15 -18 17 0 8 8 3 21 -13z m311 8 c8 12 9 12 6 0
-4 -15 -38 -25 -38 -12 0 14 15 22 19 10 2 -8 6 -7 13 2z m588 -24 c0 -5 -4
-5 -10 -2 -5 3 -10 14 -10 23 0 15 2 15 10 2 5 -8 10 -19 10 -23z m320 0 c0
-5 -4 -5 -10 -2 -5 3 -10 14 -10 23 0 15 2 15 10 2 5 -8 10 -19 10 -23z m70
18 c-14 -17 -30 -20 -30 -4 0 5 5 7 10 4 6 -3 10 -1 10 4 0 6 5 11 11 11 8 0
8 -5 -1 -15z m90 4 c0 8 2 12 5 9 3 -3 3 -13 -1 -22 -7 -19 -24 -11 -24 12 0
15 2 15 10 2 8 -12 10 -12 10 -1z m160 -22 c0 -5 -4 -5 -10 -2 -5 3 -10 14
-10 23 0 15 2 15 10 2 5 -8 10 -19 10 -23z m-445 5 c-3 -3 -11 0 -18 7 -9 10
-8 11 6 5 10 -3 15 -9 12 -12z"/>
<path d="M428 148 c6 -6 8 -18 5 -27 -4 -14 -3 -14 5 -1 18 27 17 33 -2 36
-13 2 -15 -1 -8 -8z"/>
<path d="M2976 113 c-6 -14 -5 -15 5 -6 7 7 10 15 7 18 -3 3 -9 -2 -12 -12z"/>
<path d="M529 102 c5 -10 18 -25 28 -33 12 -10 11 -5 -6 19 -24 35 -38 43 -22
14z"/>
<path d="M1295 109 c-4 -6 -14 -8 -24 -5 -14 5 -14 4 1 -7 10 -8 14 -18 10
-22 -4 -5 -1 -5 6 -1 7 4 10 11 7 16 -3 5 -1 11 5 15 5 3 10 1 10 -5 0 -6 5
-8 10 -5 11 7 4 25 -10 25 -5 0 -12 -5 -15 -11z"/>
<path d="M1437 103 c-4 -3 -7 -11 -7 -17 0 -6 5 -5 12 2 6 6 9 14 7 17 -3 3
-9 2 -12 -2z"/>
<path d="M1654 99 c-8 -14 14 -19 25 -6 8 10 7 14 -5 14 -8 0 -17 -4 -20 -8z"/>
<path d="M1696 94 c-8 -22 -4 -25 11 -9 7 8 9 16 4 19 -5 3 -12 -1 -15 -10z"/>
<path d="M1825 100 c-3 -5 -1 -10 4 -10 6 0 11 5 11 10 0 6 -2 10 -4 10 -3 0
-8 -4 -11 -10z"/>
<path d="M2010 94 c0 -8 -4 -13 -9 -9 -5 3 -12 1 -15 -4 -4 -5 2 -8 11 -7 16
3 33 36 19 36 -3 0 -6 -7 -6 -16z"/>
<path d="M2106 102 c-2 -4 4 -13 15 -20 22 -14 25 -7 5 14 -8 8 -17 11 -20 6z"/>
<path d="M2386 99 c2 -4 -1 -9 -8 -11 -7 -3 -8 -7 -2 -11 5 -3 15 2 21 12 9
14 8 18 -3 18 -7 0 -11 -4 -8 -8z"/>
<path d="M2650 94 c0 -8 -4 -13 -9 -9 -5 3 -12 1 -15 -4 -4 -5 2 -8 11 -7 16
3 33 36 19 36 -3 0 -6 -7 -6 -16z"/>
<path d="M2746 102 c-2 -4 4 -13 15 -20 22 -14 25 -7 5 14 -8 8 -17 11 -20 6z"/>
<path d="M1035 80 c-3 -6 1 -7 9 -4 18 7 21 14 7 14 -6 0 -13 -4 -16 -10z"/>
<path d="M2920 80 c-9 -6 -10 -10 -3 -10 6 0 15 5 18 10 8 12 4 12 -15 0z"/>
<path d="M636 67 c3 -10 9 -15 12 -12 3 3 0 11 -7 18 -10 9 -11 8 -5 -6z"/>
<path d="M1356 67 c3 -10 9 -15 12 -12 3 3 0 11 -7 18 -10 9 -11 8 -5 -6z"/>
</g>
</svg>
