<?xml version="1.0" standalone="no"?>
<!DOCTYPE svg PUBLIC "-//W3C//DTD SVG 20010904//EN"
 "http://www.w3.org/TR/2001/REC-SVG-20010904/DTD/svg10.dtd">
<svg version="1.0" xmlns="http://www.w3.org/2000/svg"
 width="308.000000pt" height="308.000000pt" viewBox="0 0 308.000000 308.000000"
 preserveAspectRatio="xMidYMid meet">
<metadata>
Created by potrace 1.11, written by Peter Selinger 2001-2013
</metadata>
<g transform="translate(0.000000,308.000000) scale(0.100000,-0.100000)"
fill="#000000" stroke="none">
<path d="M1275 3059 c-461 -49 -841 -240 -960 -483 -47 -97 -65 -171 -72 -301
-6 -123 11 -277 48 -437 26 -113 8 -105 179 -84 63 8 185 20 270 26 243 18
234 13 139 62 -101 52 -162 117 -185 196 -54 184 98 361 289 339 130 -16 302
-140 409 -297 16 -24 17 -21 17 90 1 127 26 575 41 740 16 171 19 160 -42 159
-29 -1 -89 -5 -133 -10z"/>
<path d="M1616 3058 c-14 -44 -46 -539 -52 -808 l-7 -255 114 113 c124 125
176 165 259 199 67 27 165 30 233 7 56 -19 121 -81 138 -132 20 -58 16 -141
-9 -188 -27 -52 -102 -121 -177 -160 l-57 -31 103 -7 c145 -10 293 -24 437
-42 68 -9 126 -14 128 -11 3 2 19 71 36 153 28 134 32 167 32 324 1 198 -10
257 -71 372 -112 215 -461 396 -869 452 -189 26 -234 28 -238 14z"/>
<path d="M891 2232 c-80 -40 -102 -135 -48 -205 38 -50 149 -103 267 -127 109
-22 240 -36 240 -25 0 4 -16 38 -36 75 -63 121 -167 225 -275 275 -64 29 -102
31 -148 7z"/>
<path d="M1950 2174 c-38 -19 -99 -71 -195 -165 -77 -76 -138 -140 -135 -142
12 -12 271 24 347 49 95 30 178 84 206 132 17 29 18 39 8 71 -17 57 -42 75
-114 79 -52 3 -71 -1 -117 -24z"/>
<path d="M1435 1840 c-41 -45 18 -110 70 -76 27 18 34 63 13 84 -18 18 -63 14
-83 -8z"/>
<path d="M1075 1654 c-22 -2 -116 -9 -210 -15 -166 -10 -493 -44 -500 -51 -7
-6 104 -289 170 -436 101 -221 190 -381 236 -424 70 -64 96 -68 427 -68 l294
0 -5 23 c-22 91 -61 497 -73 771 l-7 150 -29 -35 c-83 -97 -109 -223 -59 -289
l23 -32 -48 -43 -49 -43 -18 21 c-69 82 -84 224 -35 329 15 32 41 78 58 103
l31 45 -83 -2 c-46 -1 -101 -3 -123 -4z"/>
<path d="M1660 1621 c129 -164 332 -242 501 -195 13 3 19 -9 29 -56 7 -33 10
-63 7 -66 -3 -3 -37 -10 -76 -16 -176 -26 -360 42 -504 187 l-59 59 7 -114
c12 -211 36 -473 55 -615 11 -77 20 -141 20 -142 0 -2 119 -3 264 -3 175 0
274 4 297 12 58 20 107 58 140 109 37 58 160 321 220 471 48 120 120 330 115
335 -24 24 -635 73 -906 73 l-142 0 32 -39z"/>
<path d="M902 548 c-16 -16 -15 -43 2 -57 9 -8 184 -10 636 -9 581 3 624 4
634 20 8 13 8 23 0 35 -10 17 -53 18 -636 21 -477 2 -627 -1 -636 -10z"/>
<path d="M902 378 c-16 -16 -15 -43 2 -57 9 -8 184 -10 636 -9 581 3 624 4
634 20 8 13 8 23 0 35 -10 17 -53 18 -636 21 -477 2 -627 -1 -636 -10z"/>
<path d="M908 219 c-22 -12 -23 -47 -3 -76 96 -137 933 -167 1199 -43 72 34
101 96 57 120 -27 14 -1229 13 -1253 -1z"/>
</g>
</svg>
